<svg width="20" height="16" viewBox="0 0 20 16" fill="none" xmlns="http://www.w3.org/2000/svg">
<path d="M3.30811 2.97383C3.30811 2.62905 3.44244 2.29839 3.68154 2.05459C3.92065 1.81079 4.24495 1.67383 4.58311 1.67383H15.6331C15.9713 1.67383 16.2956 1.81079 16.5347 2.05459C16.7738 2.29839 16.9081 2.62905 16.9081 2.97383V7.74049H3.30811V2.97383Z" stroke="#FCFCFC" stroke-width="2" stroke-linecap="round" stroke-linejoin="round"/>
<path d="M2.4585 12.9404V14.6738" stroke="#FCFCFC" stroke-width="2" stroke-linecap="round" stroke-linejoin="round"/>
<path d="M17.7583 12.9404V14.6738" stroke="#FCFCFC" stroke-width="2" stroke-linecap="round" stroke-linejoin="round"/>
<path d="M12.2335 5.57495H7.9835C7.64535 5.57495 7.32104 5.71191 7.08193 5.95571C6.84283 6.19951 6.7085 6.53017 6.7085 6.87495V7.74161H13.5085V6.87495C13.5085 6.53017 13.3742 6.19951 13.1351 5.95571C12.8959 5.71191 12.5716 5.57495 12.2335 5.57495Z" stroke="#FCFCFC" stroke-width="2" stroke-linecap="round" stroke-linejoin="round"/>
<path d="M1.6084 9.03926C1.6084 8.69447 1.74273 8.36382 1.98184 8.12002C2.22095 7.87622 2.54525 7.73926 2.8834 7.73926H17.3334C17.6715 7.73926 17.9959 7.87622 18.235 8.12002C18.4741 8.36382 18.6084 8.69447 18.6084 9.03926V12.9392H1.6084V9.03926Z" stroke="#FCFCFC" stroke-width="2" stroke-linecap="round" stroke-linejoin="round"/>
</svg>
