<svg width="22" height="24" viewBox="0 0 22 24" fill="none" xmlns="http://www.w3.org/2000/svg">
<path d="M3.88965 10.7363L5.43922 6.77647C5.69146 6.13184 6.33418 5.70508 7.05236 5.70508H15.1644C15.8826 5.70508 16.5253 6.13184 16.7776 6.77647L18.3271 10.7363" stroke="#FCFCFC" stroke-width="1.875" stroke-linecap="round" stroke-linejoin="round"/>
<path d="M3.88965 10.7363H18.3271V17.2051H3.88965V10.7363Z" stroke="#FCFCFC" stroke-width="1.875" stroke-linecap="round" stroke-linejoin="round"/>
<path d="M5.20215 17.2051V18.6426H3.88965V17.2051" stroke="#FCFCFC" stroke-width="1.875" stroke-linecap="round" stroke-linejoin="round"/>
<path d="M18.3271 17.2051V18.6426H17.0146V17.2051" stroke="#FCFCFC" stroke-width="1.875" stroke-linecap="round" stroke-linejoin="round"/>
<path d="M6.51465 14.3301C6.87709 14.3301 7.1709 14.0083 7.1709 13.6113C7.1709 13.2144 6.87709 12.8926 6.51465 12.8926C6.15221 12.8926 5.8584 13.2144 5.8584 13.6113C5.8584 14.0083 6.15221 14.3301 6.51465 14.3301Z" stroke="#FCFCFC" stroke-width="1.875" stroke-linecap="round" stroke-linejoin="round"/>
<path d="M15.7021 14.3301C16.0646 14.3301 16.3584 14.0083 16.3584 13.6113C16.3584 13.2144 16.0646 12.8926 15.7021 12.8926C15.3397 12.8926 15.0459 13.2144 15.0459 13.6113C15.0459 14.0083 15.3397 14.3301 15.7021 14.3301Z" stroke="#FCFCFC" stroke-width="1.875" stroke-linecap="round" stroke-linejoin="round"/>
</svg>
