<svg width="16" height="21" viewBox="0 0 16 21" fill="none" xmlns="http://www.w3.org/2000/svg">
<path d="M10.9843 13.6389C10.3869 13.6389 9.8696 13.5482 9.43227 13.3669C9.0056 13.1856 8.6376 12.9402 8.32827 12.6309C8.0296 12.3216 7.7576 11.9909 7.51227 11.6389C7.2776 11.2762 7.0536 10.9136 6.84027 10.5509C6.62693 10.1776 6.39227 9.84158 6.13627 9.54291C5.89093 9.23358 5.5976 8.98825 5.25627 8.80691C4.9256 8.62558 4.52027 8.53491 4.04027 8.53491C3.6456 8.53491 3.2936 8.62025 2.98427 8.79091C2.67493 8.96158 2.4296 9.19625 2.24827 9.49491C2.0776 9.78291 1.99227 10.1136 1.99227 10.4869C1.99227 10.8602 2.0776 11.1962 2.24827 11.4949C2.4296 11.7829 2.67493 12.0122 2.98427 12.1829C3.2936 12.3536 3.6456 12.4389 4.04027 12.4389C4.52027 12.4389 4.9256 12.3482 5.25627 12.1669C5.5976 11.9856 5.89093 11.7456 6.13627 11.4469C6.39227 11.1376 6.62693 10.8016 6.84027 10.4389C7.0536 10.0762 7.2776 9.71358 7.51227 9.35091C7.7576 8.98825 8.0296 8.65225 8.32827 8.34291C8.6376 8.03358 9.0056 7.78825 9.43227 7.60691C9.8696 7.42558 10.3869 7.33491 10.9843 7.33491C11.5923 7.33491 12.1363 7.47358 12.6163 7.75091C13.0963 8.01758 13.4749 8.38558 13.7523 8.85491C14.0296 9.32425 14.1683 9.86291 14.1683 10.4709C14.1683 11.0789 14.0296 11.6229 13.7523 12.1029C13.4749 12.5722 13.0963 12.9456 12.6163 13.2229C12.1363 13.5002 11.5923 13.6389 10.9843 13.6389ZM3.94427 13.6389C3.33627 13.6389 2.78693 13.5002 2.29627 13.2229C1.81627 12.9456 1.4376 12.5722 1.16027 12.1029C0.882932 11.6229 0.744266 11.0842 0.744266 10.4869C0.744266 9.87891 0.882932 9.34025 1.16027 8.87091C1.4376 8.39091 1.81627 8.01758 2.29627 7.75091C2.78693 7.47358 3.33627 7.33491 3.94427 7.33491C4.55227 7.33491 5.0696 7.42558 5.49627 7.60691C5.92293 7.78825 6.2856 8.03358 6.58427 8.34291C6.8936 8.65225 7.1656 8.98825 7.40027 9.35091C7.63493 9.70291 7.85893 10.0656 8.07227 10.4389C8.29627 10.8016 8.53093 11.1376 8.77627 11.4469C9.03227 11.7456 9.3256 11.9856 9.65627 12.1669C9.9976 12.3482 10.4083 12.4389 10.8883 12.4389C11.2723 12.4389 11.6189 12.3536 11.9283 12.1829C12.2376 12.0122 12.4776 11.7776 12.6483 11.4789C12.8296 11.1802 12.9203 10.8442 12.9203 10.4709C12.9203 10.0976 12.8296 9.76691 12.6483 9.47891C12.4776 9.18025 12.2376 8.95091 11.9283 8.79091C11.6189 8.62025 11.2723 8.53491 10.8883 8.53491C10.4083 8.53491 9.9976 8.62558 9.65627 8.80691C9.3256 8.98825 9.03227 9.23358 8.77627 9.54291C8.53093 9.84158 8.29627 10.1722 8.07227 10.5349C7.85893 10.8976 7.63493 11.2602 7.40027 11.6229C7.1656 11.9856 6.8936 12.3216 6.58427 12.6309C6.2856 12.9402 5.92293 13.1856 5.49627 13.3669C5.0696 13.5482 4.55227 13.6389 3.94427 13.6389Z" fill="#FCFCFC"/>
</svg>
