<svg width="25" height="25" viewBox="0 0 25 25" fill="none" xmlns="http://www.w3.org/2000/svg">
<path d="M21.11 2.00893H4.16995C3.97953 2.00628 3.79045 2.04118 3.61352 2.11161C3.43658 2.18205 3.27525 2.28665 3.13875 2.41944C3.00224 2.55223 2.89323 2.71061 2.81794 2.88554C2.74265 3.06046 2.70256 3.24851 2.69995 3.43893V20.5789C2.70256 20.7694 2.74265 20.9574 2.81794 21.1323C2.89323 21.3072 3.00224 21.4656 3.13875 21.5984C3.27525 21.7312 3.43658 21.8358 3.61352 21.9062C3.79045 21.9767 3.97953 22.0116 4.16995 22.0089H21.11C21.3004 22.0116 21.4895 21.9767 21.6664 21.9062C21.8433 21.8358 22.0046 21.7312 22.1412 21.5984C22.2777 21.4656 22.3867 21.3072 22.462 21.1323C22.5372 20.9574 22.5773 20.7694 22.58 20.5789V3.43893C22.5773 3.24851 22.5372 3.06046 22.462 2.88554C22.3867 2.71061 22.2777 2.55223 22.1412 2.41944C22.0046 2.28665 21.8433 2.18205 21.6664 2.11161C21.4895 2.04118 21.3004 2.00628 21.11 2.00893ZM8.72995 18.7489H5.72995V9.74893H8.72995V18.7489ZM7.22995 8.48893C6.81621 8.48893 6.41942 8.32457 6.12686 8.03202C5.83431 7.73946 5.66995 7.34267 5.66995 6.92893C5.66995 6.51519 5.83431 6.1184 6.12686 5.82584C6.41942 5.53329 6.81621 5.36893 7.22995 5.36893C7.44965 5.34401 7.67213 5.36578 7.88283 5.43281C8.09352 5.49984 8.28769 5.61062 8.45261 5.75789C8.61753 5.90516 8.74948 6.08561 8.83982 6.28741C8.93017 6.48921 8.97687 6.70783 8.97687 6.92893C8.97687 7.15003 8.93017 7.36864 8.83982 7.57045C8.74948 7.77225 8.61753 7.9527 8.45261 8.09997C8.28769 8.24724 8.09352 8.35802 7.88283 8.42505C7.67213 8.49207 7.44965 8.51384 7.22995 8.48893ZM19.55 18.7489H16.55V13.9189C16.55 12.7089 16.12 11.9189 15.03 11.9189C14.6926 11.9214 14.3641 12.0272 14.0888 12.2221C13.8134 12.417 13.6044 12.6916 13.49 13.0089C13.4117 13.244 13.3778 13.4915 13.39 13.7389V18.7389H10.39C10.39 18.7389 10.39 10.5589 10.39 9.73893H13.39V11.0089C13.6625 10.536 14.0589 10.1464 14.5364 9.88213C15.0139 9.61781 15.5545 9.48878 16.1 9.50893C18.1 9.50893 19.55 10.7989 19.55 13.5689V18.7489Z" fill="#FFFEFC"/>
</svg>
