<svg width="25" height="24" viewBox="0 0 25 24" fill="none" xmlns="http://www.w3.org/2000/svg">
<path d="M18.64 4.48003C17.0487 2.88873 14.8904 1.99475 12.64 1.99475C10.3895 1.99475 8.23125 2.88873 6.63995 4.48003C5.04865 6.07133 4.15467 8.2296 4.15467 10.48C4.15467 12.7305 5.04865 14.8887 6.63995 16.48L11.91 21.76C12.0029 21.8538 12.1135 21.9282 12.2354 21.9789C12.3572 22.0297 12.4879 22.0558 12.62 22.0558C12.752 22.0558 12.8827 22.0297 13.0045 21.9789C13.1264 21.9282 13.237 21.8538 13.33 21.76L18.64 16.43C20.2246 14.8454 21.1148 12.6961 21.1148 10.455C21.1148 8.21398 20.2246 6.06471 18.64 4.48003ZM17.21 15L12.64 19.59L8.06995 15C7.1671 14.0963 6.55243 12.9453 6.30365 11.6923C6.05487 10.4394 6.18314 9.14078 6.67226 7.96071C7.16137 6.78065 7.98937 5.77208 9.05158 5.06251C10.1138 4.35294 11.3625 3.97421 12.64 3.97421C13.9174 3.97421 15.1661 4.35294 16.2283 5.06251C17.2905 5.77208 18.1185 6.78065 18.6076 7.96071C19.0968 9.14078 19.225 10.4394 18.9763 11.6923C18.7275 12.9453 18.1128 14.0963 17.21 15ZM9.63995 7.41003C8.83267 8.2198 8.37935 9.3166 8.37935 10.46C8.37935 11.6035 8.83267 12.7003 9.63995 13.51C10.2397 14.1108 11.0035 14.5211 11.8356 14.6894C12.6677 14.8578 13.5309 14.7766 14.317 14.4562C15.1031 14.1358 15.7771 13.5903 16.2544 12.8883C16.7317 12.1863 16.9911 11.3589 17 10.51C17.0045 9.94324 16.8953 9.38129 16.6789 8.85742C16.4624 8.33355 16.1432 7.85839 15.74 7.46003C15.3436 7.05461 14.871 6.73157 14.3494 6.5095C13.8277 6.28743 13.2673 6.17071 12.7004 6.16606C12.1334 6.16141 11.5712 6.26893 11.0459 6.48242C10.5207 6.69591 10.0429 7.01116 9.63995 7.41003ZM14.33 12.09C13.951 12.4748 13.4502 12.7159 12.9131 12.7723C12.376 12.8286 11.836 12.6967 11.3855 12.399C10.9349 12.1012 10.6017 11.6563 10.443 11.1401C10.2842 10.624 10.3096 10.0687 10.5149 9.56919C10.7202 9.06971 11.0927 8.65705 11.5685 8.40177C12.0444 8.14649 12.5942 8.06444 13.1239 8.16965C13.6536 8.27486 14.1303 8.56079 14.4725 8.97856C14.8147 9.39634 15.0011 9.92 15 10.46C14.9854 11.0773 14.7264 11.6636 14.28 12.09H14.33Z" fill="#FFFEFC"/>
</svg>