<svg width="18" height="17" viewBox="0 0 18 17" fill="none" xmlns="http://www.w3.org/2000/svg">
<path d="M15.8374 10.1739C15.8358 9.77368 15.7067 9.38314 15.4668 9.05274C15.2269 8.72234 14.8872 8.46728 14.4916 8.32054L15.8162 3.65388C15.8438 3.55449 15.8467 3.45043 15.8246 3.34982C15.8025 3.24921 15.756 3.15477 15.6887 3.07388C15.6199 2.99808 15.5339 2.93777 15.437 2.89739C15.3402 2.85701 15.2349 2.83758 15.1291 2.84054H5.4249L5.19115 2.00054C5.15051 1.85848 5.06109 1.73306 4.93681 1.64383C4.81253 1.5546 4.66038 1.50656 4.50407 1.50721H3.0874V2.84054H3.95865L5.71532 9.01388C5.75683 9.15932 5.84943 9.28725 5.97806 9.37683C6.10668 9.46641 6.26374 9.51236 6.42365 9.50721H13.7124C13.9003 9.50721 14.0804 9.57745 14.2133 9.70247C14.3461 9.8275 14.4207 9.99706 14.4207 10.1739C14.4207 10.3507 14.3461 10.5203 14.2133 10.6453C14.0804 10.7703 13.9003 10.8405 13.7124 10.8405H4.50407C4.31621 10.8405 4.13604 10.9108 4.0032 11.0358C3.87036 11.1608 3.79574 11.3304 3.79574 11.5072C3.79574 11.684 3.87036 11.8536 4.0032 11.9786C4.13604 12.1036 4.31621 12.1739 4.50407 12.1739H5.3399C5.22341 12.476 5.18597 12.8 5.23077 13.1186C5.27557 13.4372 5.40128 13.7409 5.59725 14.0041C5.79323 14.2673 6.0537 14.4821 6.35661 14.6305C6.65952 14.7788 6.99595 14.8562 7.3374 14.8562C7.67886 14.8562 8.01528 14.7788 8.31819 14.6305C8.6211 14.4821 8.88158 14.2673 9.07755 14.0041C9.27353 13.7409 9.39924 13.4372 9.44403 13.1186C9.48883 12.8 9.4514 12.476 9.3349 12.1739H11.0066C10.9005 12.4489 10.8599 12.7426 10.8876 13.034C10.9152 13.3255 11.0105 13.6077 11.1667 13.8607C11.3229 14.1137 11.5361 14.3314 11.7914 14.4984C12.0467 14.6654 12.3379 14.7776 12.6443 14.8272C12.9507 14.8767 13.2649 14.8624 13.5648 14.7852C13.8647 14.708 14.143 14.5698 14.3799 14.3803C14.6169 14.1909 14.8068 13.9548 14.9362 13.6887C15.0656 13.4227 15.1315 13.1332 15.1291 12.8405C15.1278 12.4961 15.03 12.1581 14.8457 11.8605C15.1486 11.6808 15.3984 11.4319 15.5717 11.1371C15.7451 10.8422 15.8365 10.5109 15.8374 10.1739ZM13.0678 8.17388H6.98324L5.8074 4.17388H14.2082L13.0678 8.17388ZM7.3374 13.5072C7.19731 13.5072 7.06036 13.4681 6.94387 13.3949C6.82739 13.3216 6.7366 13.2175 6.68299 13.0957C6.62938 12.9738 6.61535 12.8398 6.64268 12.7105C6.67001 12.5812 6.73747 12.4624 6.83653 12.3691C6.9356 12.2759 7.06181 12.2124 7.19921 12.1867C7.33662 12.161 7.47904 12.1742 7.60847 12.2246C7.7379 12.2751 7.84853 12.3605 7.92636 12.4702C8.00419 12.5798 8.04574 12.7087 8.04574 12.8405C8.04574 13.0174 7.97111 13.1869 7.83827 13.3119C7.70543 13.437 7.52526 13.5072 7.3374 13.5072ZM13.0041 13.5072C12.864 13.5072 12.727 13.4681 12.6105 13.3949C12.4941 13.3216 12.4033 13.2175 12.3497 13.0957C12.296 12.9738 12.282 12.8398 12.3093 12.7105C12.3367 12.5812 12.4041 12.4624 12.5032 12.3691C12.6023 12.2759 12.7285 12.2124 12.8659 12.1867C13.0033 12.161 13.1457 12.1742 13.2751 12.2246C13.4046 12.2751 13.5152 12.3605 13.593 12.4702C13.6709 12.5798 13.7124 12.7087 13.7124 12.8405C13.7124 13.0174 13.6378 13.1869 13.5049 13.3119C13.3721 13.437 13.1919 13.5072 13.0041 13.5072Z" fill="#FCFCFC"/>
</svg>
