<svg width="26" height="25" viewBox="0 0 26 25" fill="none" xmlns="http://www.w3.org/2000/svg">
<path d="M20.7986 0.861705C20.5269 0.6356 20.1989 0.487413 19.8495 0.432916C19.5002 0.378419 19.1427 0.419651 18.8149 0.552223L1.70816 7.45887C1.34232 7.60939 1.03091 7.86761 0.815256 8.19926C0.599603 8.5309 0.489908 8.92029 0.50073 9.31573C0.511553 9.71118 0.642381 10.094 0.875851 10.4133C1.10932 10.7327 1.43439 10.9735 1.80791 11.1038L5.26823 12.3072L7.19694 18.6853C7.22315 18.7705 7.26119 18.8516 7.30994 18.9263C7.31734 18.9377 7.32777 18.9462 7.33564 18.9574C7.39196 19.0359 7.46003 19.1054 7.53746 19.1633C7.55949 19.1801 7.58057 19.1958 7.60411 19.2107C7.69473 19.2709 7.79509 19.3148 7.90073 19.3407L7.91203 19.3416L7.91843 19.3444C7.98194 19.3573 8.04659 19.3638 8.1114 19.3639C8.11763 19.3639 8.12317 19.361 8.12934 19.3608C8.22715 19.3591 8.32411 19.3423 8.41676 19.3109C8.43831 19.3036 8.45678 19.2913 8.4777 19.2824C8.54679 19.2538 8.61224 19.2171 8.67271 19.1731C8.72112 19.1323 8.76956 19.0915 8.81801 19.0507L11.3974 16.2029L15.2446 19.1831C15.5833 19.4468 16.0002 19.5901 16.4294 19.5905C16.8792 19.5899 17.3151 19.4347 17.664 19.1509C18.013 18.8672 18.2538 18.472 18.346 18.0318L21.4605 2.74289C21.5311 2.39878 21.5068 2.04196 21.3902 1.7106C21.2736 1.37924 21.0691 1.08581 20.7986 0.861705ZM8.48991 12.6111C8.35755 12.743 8.26707 12.9109 8.22982 13.094L7.93437 14.5297L7.18593 12.0544L11.0665 10.0336L8.48991 12.6111ZM16.4145 17.6739L11.8682 14.152C11.678 14.005 11.4394 13.9351 11.1999 13.9562C10.9605 13.9773 10.7378 14.0878 10.5762 14.2657L9.75006 15.1775L10.042 13.7586L16.8032 6.99741C16.9646 6.83624 17.0629 6.6226 17.0804 6.39519C17.0979 6.16778 17.0333 5.94164 16.8984 5.75772C16.7635 5.57381 16.5672 5.44429 16.3451 5.39262C16.1229 5.34095 15.8896 5.37055 15.6874 5.47606L5.98392 10.5282L2.42876 9.22725L19.5905 2.36159L16.4145 17.6739Z" fill="white"/>
</svg>
