<svg width="31" height="30" viewBox="0 0 31 30" fill="none" xmlns="http://www.w3.org/2000/svg">
<path d="M29.25 12.1375C29.3118 10.3483 28.9205 8.57253 28.1125 6.97501C27.5642 6.31951 26.8034 5.87715 25.9625 5.72501C22.4844 5.40942 18.9919 5.28007 15.5 5.33751C12.0208 5.27746 8.54086 5.40264 5.07497 5.71251C4.38975 5.83716 3.75562 6.15856 3.24997 6.63751C2.12497 7.67501 1.99997 9.45001 1.87497 10.95C1.69361 13.647 1.69361 16.3531 1.87497 19.05C1.91114 19.8943 2.03684 20.7323 2.24997 21.55C2.40069 22.1813 2.70563 22.7654 3.13747 23.25C3.64656 23.7543 4.29545 24.094 4.99997 24.225C7.69487 24.5577 10.4102 24.6955 13.125 24.6375C17.5 24.7 21.3375 24.6375 25.875 24.2875C26.5968 24.1646 27.264 23.8244 27.7875 23.3125C28.1374 22.9624 28.3988 22.5339 28.55 22.0625C28.997 20.6908 29.2166 19.2551 29.2 17.8125C29.25 17.1125 29.25 12.8875 29.25 12.1375ZM12.675 18.5625V10.825L20.075 14.7125C18 15.8625 15.2625 17.1625 12.675 18.5625Z" fill="white"/>
</svg>
